<?xml version="1.0" encoding="iso-8859-1"?>
<!-- Generator: Adobe Illustrator 19.0.0, SVG Export Plug-In . SVG Version: 6.00 Build 0)  -->
<svg version="1.1" id="Layer_1" xmlns="http://www.w3.org/2000/svg" xmlns:xlink="http://www.w3.org/1999/xlink" x="0px" y="0px"
	 viewBox="0 0 512 512" style="enable-background:new 0 0 512 512;" xml:space="preserve">
<circle style="fill:#273B7A;" cx="256" cy="256" r="256"/>
<path style="fill:#121149;" d="M163.504,403.573l107.951,107.949c120.949-7.204,219.284-98.364,237.509-216.016L374.451,160.994
	l-18.111,23.869l-69.31-69.308l-92.289,195.927l-91.136-91.136l8.161,43.125l71.987,71.987l-5.329,24.552L163.504,403.573z"/>
<path style="fill:#FF6262;" d="M395.84,233.529c-5.106-11.355-12.366-21.909-21.389-31.363v-41.172
	c-22.059,1.558-35.973,5.518-44.773,9.9c-22.05-10.064-47.656-15.844-74.99-15.844c-66.869,0-123.489,34.478-142.703,82.058
	l-8.38-16.76c-1.37-2.739-4.698-3.853-7.446-2.482c-2.741,1.372-3.853,4.705-2.482,7.446l13.545,27.091
	c-1.469,6.616-2.239,13.422-2.239,20.37c0,29.043,13.4,52.998,35.568,70.639l22.952,60.163h59.882v-28.15
	c10.097,1.307,20.563,1.989,31.301,1.989c10.273,0,20.268-0.276,29.941-0.898v27.058h59.882l16.787-44.003
	c17.199-7.973,31.784-32.213,43.094-47.559c2.822-3.831,22.275-13.081,22.275-13.081v-65.402L395.84,233.529L395.84,233.529z"/>
<path style="fill:#FF314F;" d="M395.84,233.529c-5.106-11.355-12.366-21.909-21.389-31.363v-41.172
	c-22.057,1.558-35.973,5.518-44.773,9.9c-21.697-9.904-46.837-15.646-73.678-15.827v222.337c9.809-0.022,19.37-0.293,28.629-0.89
	v27.06h59.882l16.787-44.003c17.199-7.973,31.784-32.213,43.094-47.559c2.822-3.829,22.275-13.081,22.275-13.081v-65.402H395.84
	V233.529z"/>
<circle style="fill:#FFC61B;" cx="256" cy="142.912" r="41.374"/>
<path style="fill:#EAA22F;" d="M297.374,142.905c0-22.85-18.523-41.374-41.374-41.374v82.747
	C278.85,184.279,297.374,165.755,297.374,142.905z"/>
<circle style="fill:#E09112;" cx="256" cy="142.912" r="31.03"/>
<path style="fill:#FF5419;" d="M287.03,142.905c0-17.137-13.893-31.03-31.03-31.03v62.061
	C273.137,173.935,287.03,160.044,287.03,142.905z"/>
<circle style="fill:#A30F44;" cx="350.332" cy="230.762" r="10.306"/>
<g>
</g>
<g>
</g>
<g>
</g>
<g>
</g>
<g>
</g>
<g>
</g>
<g>
</g>
<g>
</g>
<g>
</g>
<g>
</g>
<g>
</g>
<g>
</g>
<g>
</g>
<g>
</g>
<g>
</g>
</svg>
