<?xml version="1.0" encoding="utf-8"?>
<!-- Generator: Adobe Illustrator 19.0.0, SVG Export Plug-In . SVG Version: 6.00 Build 0)  -->
<svg version="1.1" id="Capa_1" xmlns="http://www.w3.org/2000/svg" xmlns:xlink="http://www.w3.org/1999/xlink" x="0px" y="0px"
	 viewBox="-417 432 512 512" style="enable-background:new -417 432 512 512;" xml:space="preserve">
<style type="text/css">
	.st0{fill:#FDC717;}
	.st1{fill:#DE182F;}
</style>
<path class="st0" d="M62.4,845.4l-65-28.2c-2-1-4.2-3.6-6.1-6.6l45.4,0c0.8,0.1,18.5,1.7,32.8-4.4c5.2-2.3,9.2-6.7,10.7-12.3
	c1.6-5.6,0.6-11.5-2.7-16.2C65,759.9,35.8,713.4,34.9,666.2c0-0.8-2.6-80-80.8-80.7c-45.8,0.4-67.5,27.4-77.7,49.9
	c-4.9,11-7.8,23.8-8.8,39.2c-3,45.1-26.5,88.3-36.5,104.7c-2.6,4.3-3.4,9.6-2.2,14.6c1.2,4.9,4.2,8.9,8.5,11.5
	c10.7,6.4,23.2,5.5,25.7,5.3h43.6c-2.6,2-3.7,2.6-4.1,2.8l-48.5,28.1c1.3,0.2,2.2,0.9,2.9,1.7c1.2,0.9,1.9,2.3,2,3.7
	c2,0.3,3.2,1.6,3.8,3.2l45.7-26.5c1.1-0.6,3-1.8,8.1-5.8c3.6-2.9,5-7.6,3.5-12c-1.5-4.4-5.5-7.3-10.2-7.3h-47.1l-0.7,0
	c-0.1,0-10.5,1.2-18.6-3.7c-1.5-0.9-2.6-2.4-3-4.2c-0.5-1.9-0.2-3.9,0.8-5.6c10.4-17.2,35.1-62.3,38.2-110.1
	c0.9-14,3.5-25.4,7.8-35.1c8.7-19.4,27.4-42.6,66.9-42.9c66.5,0.5,68.9,66.3,69,69.1c1,50.5,31.6,99.4,44.8,118.1
	c1.3,1.8,1.6,4,1,6.2c-0.6,2.1-2,3.8-4,4.6c-11.4,4.9-26.8,3.5-27.5,3.5h-46c-4,0-7.7,2-9.8,5.5c-2.1,3.4-2.3,7.6-0.5,11.2
	c2,4.1,5.6,9.6,11.5,12.5l65,28.2c14.2,7.1,23,21.3,23,37.2v12.1c0,8-43.9,23.7-124.4,23.7c-44,0-77.1-4.7-98-10.2
	c-0.8,1.2-2.1,2.1-4,2.1c-0.5,0-0.9-0.1-1.3-0.2c-0.7,0.6-1.6,1-2.7,1.1c-0.6,1.7-2.1,3-4.5,3c-0.1,0-0.2,0-0.3,0
	c-0.1,0.7-0.4,1.5-0.8,2.1C-125.7,937.7-75.5,941-44,941c47.1,0,136.3-7.4,136.3-35.5v-12.1C92.3,873,80.9,854.7,62.4,845.4z"/>
<path class="st1" d="M-147.1,832l-62.5-31.2c-5.9-3-9.6-8.9-9.6-15.5v-22.1c1.5-1.8,3.1-3.9,4.7-6.2c8.1-11.4,14.6-24.2,19.3-37.9
	c9.2-4.2,15.2-13.4,15.2-23.7v-26.2c0-6.3-2.4-12.4-6.5-17.2v-34.8c0.4-3.6,1.8-25-13.7-42.7c-13.4-15.3-35.2-23.1-64.8-23.1
	s-51.4,7.8-64.8,23.1c-15.5,17.7-14.1,39.1-13.7,42.7V652c-4.2,4.8-6.5,10.9-6.5,17.2v26.2c0,8,3.6,15.4,9.8,20.3
	c6,23.7,18.5,41.6,22.9,47.3v21.6c0,6.3-3.5,12.1-9,15.2l-58.4,31.8c-19,10.4-30.8,30.2-30.8,51.8v21.2c0,31.1,98.4,39.3,150.5,39.3
	s150.5-8.2,150.5-39.3v-19.9C-114.5,862.3-127,842.1-147.1,832z M-127.6,904.7c0,8.9-48.5,26.2-137.4,26.2s-137.4-17.3-137.4-26.2
	v-21.2c0-16.8,9.2-32.3,23.9-40.3l58.4-31.8c9.8-5.3,15.8-15.6,15.8-26.7v-26.3l-1.5-1.8c-0.2-0.2-16.2-19.6-22.3-46.2l-0.6-2.6
	l-2.2-1.4c-3.8-2.4-6.1-6.5-6.1-11v-26.2c0-3.7,1.6-7.1,4.4-9.7l2.2-1.9v-40.7l-0.1-0.9c0-0.2-2.2-18.3,10.5-32.9
	c10.8-12.4,29.3-18.6,55-18.6c25.5,0,44,6.2,54.9,18.5c12.7,14.4,10.6,32.8,10.6,33l-0.1,41.6l2.2,1.9c2.8,2.6,4.4,6,4.4,9.6v26.2
	c0,5.7-3.7,10.7-9.3,12.4l-3.3,1l-1,3.2c-4.4,13.6-10.6,26.2-18.5,37.4c-1.9,2.8-3.8,5.2-5.5,7.1l-1.6,1.9v27
	c0,11.6,6.4,22,16.8,27.2l62.5,31.2c15.7,7.8,25.4,23.6,25.4,41.1V904.7z"/>
</svg>
